<svg xmlns="http://www.w3.org/2000/svg" width="1776" height="256" viewBox="0 0 1776 256">
  <g fill="#000000" fill-rule="evenodd" transform="translate(543 64)">
    <path d="M196.390625 113.039062L196.390625 75.4921875 234.429688 75.4921875 234.429688 59.25 196.390625 59.25 196.390625 33.65625 238.085938 33.65625 238.085938 17.0625 176 17.0625 176 113.039062 196.390625 113.039062zM282.03125 114.375C261.429688 114.375 247.648438 101.71875 247.648438 78.515625L247.648438 71.9765625C247.648438 49.6171875 261.570312 36.890625 281.257812 36.890625 301.789062 36.890625 314.65625 50.7421875 314.65625 72.3984375L314.65625 79.78125 267.054688 79.78125 267.054688 82.03125C267.054688 92.71875 273.3125 99.46875 282.171875 99.46875 289.34375 99.46875 294.476562 95.953125 295.8125 90.046875L314.023438 90.046875C312.476562 101.929688 302.773438 114.375 282.03125 114.375zM267.054688 67.6875L295.601562 67.6875 295.601562 67.546875C295.601562 58.3359375 289.976562 51.375 281.398438 51.375 272.75 51.375 267.054688 58.40625 267.054688 67.546875L267.054688 67.6875zM360.570312 114.375C339.96875 114.375 326.1875 101.71875 326.1875 78.515625L326.1875 71.9765625C326.1875 49.6171875 340.109375 36.890625 359.796875 36.890625 380.328125 36.890625 393.195312 50.7421875 393.195312 72.3984375L393.195312 79.78125 345.59375 79.78125 345.59375 82.03125C345.59375 92.71875 351.851562 99.46875 360.710938 99.46875 367.882812 99.46875 373.015625 95.953125 374.351562 90.046875L392.5625 90.046875C391.015625 101.929688 381.3125 114.375 360.570312 114.375zM345.59375 67.6875L374.140625 67.6875 374.140625 67.546875C374.140625 58.3359375 368.515625 51.375 359.9375 51.375 351.289062 51.375 345.59375 58.40625 345.59375 67.546875L345.59375 67.6875zM433.203125 37.3125C443.398438 37.3125 451.203125 42.234375 454.4375 49.3359375L455.210938 49.3359375 455.210938 12 475.039062 12 475.039062 113.039062 455.492188 113.039062 455.492188 101.4375 454.71875 101.4375C451.273438 109.101562 443.46875 113.953125 433.203125 113.953125 415.273438 113.953125 404.867188 100.523438 404.867188 78.65625L404.867188 72.46875C404.867188 50.8828125 415.625 37.3125 433.203125 37.3125zM439.953125 52.9921875C431.445312 52.9921875 425.1875 59.6015625 425.1875 73.1015625L425.1875 78.1640625C425.1875 91.6640625 431.445312 98.2734375 440.09375 98.2734375 449.304688 98.2734375 455.351562 91.3125 455.351562 78.234375L455.351562 73.1015625C455.351562 60.4453125 449.234375 52.9921875 439.953125 52.9921875zM506.1875 113.039062L485.867188 113.039062 517.648438 17.0625 541.765625 17.0625 573.40625 113.039062 551.679688 113.039062 544.578125 89.203125 513.359375 89.203125 506.1875 113.039062zM529.53125 36.1875L528.617188 36.1875 517.367188 74.2265625 540.640625 74.2265625 529.53125 36.1875zM584.304688 17.0625L623.398438 17.0625C644.492188 17.0625 656.234375 31.40625 656.234375 49.4765625 656.234375 67.7578125 644.351562 81.609375 623.1875 81.609375L604.625 81.609375 604.625 113.039062 584.304688 113.039062 584.304688 17.0625zM604.554688 33.0234375L604.554688 65.859375 615.3125 65.859375C627.898438 65.859375 635.5625 61.921875 635.5625 49.4765625 635.5625 38.9296875 629.375 33.0234375 619.179688 33.0234375L604.554688 33.0234375zM689.5625 113.039062L689.5625 17.0625 669.171875 17.0625 669.171875 113.039062 689.5625 113.039062zM128 44L128 4C128 1.790861 126.209139 0 124 0L4 0C1.790861 0 0 1.790861 0 4L0 124C0 126.209139 1.790861 128 4 128L44 128C46.209139 128 48 126.209139 48 124L48 52C48 49.790861 49.790861 48 52 48L124 48C126.209139 48 128 46.209139 128 44z"/>
    <path d="M68,64 L124,64 C126.209139,64 128,65.790861 128,68 L128,124 C128,126.209139 126.209139,128 124,128 L68,128 C65.790861,128 64,126.209139 64,124 L64,68 C64,65.790861 65.790861,64 68,64 Z"/>
  </g>
</svg>
