<svg xmlns="http://www.w3.org/2000/svg" width="1776" height="387" viewBox="0 0 1776 387">
  <g fill="none" fill-rule="evenodd">
    <text fill="#000000" font-family="SFCompactDisplay-Regular, SF Compact Display" font-size="36" font-style="condensed">
      <tspan x="427.419" y="288">Parse RSS</tspan>
    </text>
    <g fill="#000000" fill-rule="nonzero" transform="translate(468 122)">
      <circle cx="10.4" cy="58.4" r="9.6"/>
      <path d="M68.000004,68.000004 L55.2,68.000004 C55.2,38.003136 30.796872,13.600008 0.800004,13.600008 L0.800004,0.800004 C37.853124,0.800004 68.000004,30.945312 68.000004,68.000004 Z"/>
      <path d="M45.6,68.000004 L32.799996,68.000004 C32.799996,50.354688 18.443748,36 0.800004,36 L0.800004,23.199996 C25.50312,23.199996 45.6,43.296876 45.6,68.000004 Z"/>
    </g>
    <g fill="#000000" fill-rule="nonzero" transform="translate(852 128)">
      <path d="M16.8 47.7936L.7032 31.6968C-.234 30.7596-.234 29.2404.7032 28.3032L16.8 12.2064 20.1948 15.6 5.7948 30 20.1948 44.4 16.8 47.7936zM55.2 47.7936L51.8052 44.4 66.2052 30 51.8052 15.6 55.2 12.2064 71.2968 28.3032C72.234 29.2404 72.234 30.7596 71.2968 31.6968L55.2 47.7936z"/>
      <rect width="60.984" height="4.8" x="5.509" y="27.6" transform="rotate(-70.014 36.001 30)"/>
    </g>
    <g fill="#000000" fill-rule="nonzero" transform="translate(1242 120.8)">
      <polygon points="45.6 .703 45.6 14.4 59.297 14.4"/>
      <path d="M44.4,16.8 L60,16.8 L60,72 C60,73.326 58.926,74.4 57.6,74.4 L2.4,74.4 C1.074,74.4 0,73.326 0,72 L0,2.4 C0,1.074 1.074,0 2.4,0 L43.2,0 L43.2,15.6 C43.2,16.2624 43.7376,16.8 44.4,16.8 Z M17.5546875,37.4882812 C19.8222656,37.2773437 21.0351562,36.1875 21.0351562,33.6386719 L21.0351562,29.6660156 C21.0351562,27.1171875 21.8085938,26.2382812 24.5859375,26.2382812 L25.3066406,26.2382812 L25.3066406,22.6699219 L23.5488281,22.6699219 C18.7148438,22.6699219 16.3242188,24.234375 16.3242188,28.8925781 L16.3242188,32.0214844 C16.3242188,34.3945312 15.8144531,35.484375 13.546875,35.484375 L13.546875,39.984375 C15.8144531,39.984375 16.3242188,41.0742187 16.3242188,43.4472656 L16.3242188,47.1210937 C16.3242188,51.8144531 18.7148438,53.5019531 23.5488281,53.5019531 L25.3066406,53.5019531 L25.3066406,49.9160156 L24.5859375,49.9160156 C21.8085938,49.9160156 21.0351562,49.0371094 21.0351562,46.4882812 L21.0351562,42.1113281 C21.0351562,39.5625 19.8222656,38.1738281 17.5546875,37.9804687 L17.5546875,37.4882812 Z M41.7949219,37.9804687 C39.5449219,38.1738281 38.3320312,39.5625 38.3320312,42.1113281 L38.3320312,46.4882812 C38.3320312,49.0371094 37.5234375,49.9160156 34.78125,49.9160156 L34.0429688,49.9160156 L34.0429688,53.5019531 L35.8007812,53.5019531 C40.6347656,53.5019531 43.0078125,51.8144531 43.0078125,47.1210937 L43.0078125,43.4472656 C43.0078125,41.0742187 43.5351562,39.984375 45.8203125,39.984375 L45.8203125,35.484375 C43.5351562,35.484375 43.0078125,34.3945312 43.0078125,32.0214844 L43.0078125,28.8925781 C43.0078125,24.234375 40.6347656,22.6699219 35.8007812,22.6699219 L34.0429688,22.6699219 L34.0429688,26.2382812 L34.78125,26.2382812 C37.5234375,26.2382812 38.3320312,27.1171875 38.3320312,29.6660156 L38.3320312,33.6386719 C38.3320312,36.1875 39.5449219,37.2773437 41.7949219,37.4882812 L41.7949219,37.9804687 Z"/>
    </g>
    <text fill="#000000" font-family="SFCompactDisplay-Regular, SF Compact Display" font-size="36" font-style="condensed">
      <tspan x="756.729" y="288">Scrape Metadata</tspan>
    </text>
    <text fill="#000000" font-family="SFCompactDisplay-Regular, SF Compact Display" font-size="36" font-style="condensed">
      <tspan x="1136.42" y="288">Return JSONFeed</tspan>
    </text>
    <polyline stroke="#000000" stroke-width="6" points="686.5 138.5 706.5 158.5 686.5 178.5" stroke-linecap="round" stroke-linejoin="round"/>
    <polyline stroke="#000000" stroke-width="6" points="1070.5 138.5 1090.5 158.5 1070.5 178.5" stroke-linecap="round" stroke-linejoin="round"/>
  </g>
</svg>
