<svg xmlns="http://www.w3.org/2000/svg" width="1776" height="387">
  <g fill="none" fill-rule="evenodd">
    <path fill="#000" d="M470.792969 264.005859c4.658203 0 7.68164 3.111329 7.68164 7.541016 0 4.447266-3.023437 7.523437-7.699218 7.523437h-5.572266V288h-3.234375v-23.994141h8.824219zm4.359375 7.541016c0-2.970703-1.705078-4.675781-4.658203-4.675781h-5.291016v9.351562h5.291016c2.953125 0 4.658203-1.722656 4.658203-4.675781zm12.638672 16.751953c-3.585938 0-6.046875-2.25-6.046875-5.677734 0-3.234375 2.25-5.431641 6.503906-5.431641h4.833984v-1.828125c0-2.355469-1.49414-3.427734-3.867187-3.427734-2.337891 0-3.322266.896484-3.691406 2.179687h-3.076172c.28125-3.128906 2.742187-4.904297 6.873046-4.904297 3.814454 0 6.960938 1.634766 6.960938 6.169922V288h-3.058594v-2.443359h-.140625c-.896484 1.476562-2.566406 2.742187-5.291015 2.742187zm.878906-2.689453c2.496094 0 4.412109-1.6875 4.412109-3.919922v-2.074219h-4.570312c-2.496094 0-3.515625 1.248047-3.515625 2.900391 0 2.109375 1.757812 3.09375 3.673828 3.09375zM502.714844 288v-18.492188h3.18164v2.847657h.158204c.457031-1.230469 1.792968-3.128907 5.0625-3.128907.404296 0 .791015.035157 1.160156.087891V272.25c-.298828-.070312-.931641-.105469-1.494141-.105469-3.251953 0-4.869141 1.951172-4.869141 4.447266V288h-3.199218zm12.884765-13.183594c0-3.9375 3.28711-5.625 6.890625-5.625 3.990235 0 6.626954 2.074219 6.626954 5.203125h-2.953126c-.105468-1.300781-1.300781-2.671875-3.779296-2.671875-2.16211 0-3.708985 1.001953-3.708985 2.759766 0 2.197266 2.496094 2.496094 4.587891 2.865234 3.46289.615235 6.328125 1.582032 6.328125 5.167969 0 3.691406-2.953125 5.783203-7.382813 5.783203-4.113281 0-6.943359-1.845703-6.943359-5.167969h3.111328c.246094 1.634766 1.388672 2.654297 3.972656 2.654297 2.917969 0 4.113282-1.300781 4.113282-2.882812 0-2.056641-2.056641-2.425782-4.623047-2.935547-3.445313-.703125-6.240235-1.511719-6.240235-5.150391zm26.191407 13.482422c-4.97461 0-7.910157-3.146484-7.910157-8.15625v-2.777344c0-5.0625 3.234375-8.173828 7.664063-8.173828 4.482422 0 7.68164 3.181641 7.68164 8.173828v2.214844h-12.18164v.931641c0 2.865234 1.652344 5.0625 4.728516 5.0625 2.162109 0 3.621093-1.03711 3.9375-2.179688h3.269531c-.28125 2.003907-2.513672 4.904297-7.189453 4.904297zm-4.746094-11.021484h9.017578v-.298828c0-3.058594-1.792969-5.0625-4.5-5.0625-2.707031 0-4.517578 2.003906-4.517578 5.0625v.298828zm-96.240234 29.728515c4.78125 0 7.787109 2.830079 7.787109 7.207032 0 3.287109-1.792969 5.748047-4.464844 6.697265L449.013672 331h-3.673828l-4.41211-9.474609h-5.660156V331h-3.216797v-23.994141h8.753907zm-5.53711 11.707032h4.992188c3.216796 0 4.992187-1.476563 4.992187-4.324219 0-2.900391-1.810547-4.535156-4.869141-4.535156h-5.115234v8.859375zm17.367188 6.1875h3.269531c.457031 2.267578 2.619141 3.726562 5.748047 3.726562 3.339844 0 5.396484-1.599609 5.396484-4.095703 0-1.916016-1.21289-3.023438-3.902344-3.708984L458.980469 319.75c-3.603516-.931641-5.677735-3.128906-5.677735-6.345703 0-4.078125 3.498047-6.960938 8.384766-6.960938 4.746094 0 7.962891 2.654297 8.332031 6.310547h-3.251953c-.439453-2.109375-2.33789-3.445312-5.132812-3.445312-3.023438 0-5.044922 1.599609-5.044922 3.9375 0 1.6875 1.177734 2.847656 3.375 3.392578l4.095703 1.072266c4.201172 1.089843 6.257812 3.058593 6.257812 6.55664 0 4.359375-3.46289 7.22461-9 7.22461-5.080078 0-8.349609-2.72461-8.683593-6.591797zm21.322265 0h3.269531c.457032 2.267578 2.619141 3.726562 5.748047 3.726562 3.339844 0 5.396485-1.599609 5.396485-4.095703 0-1.916016-1.212891-3.023438-3.902344-3.708984L480.302734 319.75c-3.603515-.931641-5.677734-3.128906-5.677734-6.345703 0-4.078125 3.498047-6.960938 8.384766-6.960938 4.746093 0 7.96289 2.654297 8.332031 6.310547h-3.251953c-.439453-2.109375-2.337891-3.445312-5.132813-3.445312-3.023437 0-5.044922 1.599609-5.044922 3.9375 0 1.6875 1.177735 2.847656 3.375 3.392578l4.095703 1.072266c4.201172 1.089843 6.257813 3.058593 6.257813 6.55664 0 4.359375-3.462891 7.22461-9 7.22461-5.080078 0-8.349609-2.72461-8.683594-6.591797zM508.410156 331h-3.234375v-23.994141h14.291016v2.900391h-11.056641v7.962891h10.125v2.882812h-10.125V331zm22.306641.298828c-4.974609 0-7.910156-3.146484-7.910156-8.15625v-2.777344c0-5.0625 3.234375-8.173828 7.664062-8.173828 4.482422 0 7.681641 3.181641 7.681641 8.173828v2.214844h-12.181641v.931641c0 2.865234 1.652344 5.0625 4.728516 5.0625 2.162109 0 3.621093-1.03711 3.9375-2.179688h3.269531c-.28125 2.003907-2.513672 4.904297-7.189453 4.904297zm-4.746094-11.021484h9.017578v-.298828c0-3.058594-1.792969-5.0625-4.5-5.0625-2.707031 0-4.517578 2.003906-4.517578 5.0625v.298828zm24.451172 11.021484c-4.974609 0-7.910156-3.146484-7.910156-8.15625v-2.777344c0-5.0625 3.234375-8.173828 7.664062-8.173828 4.482422 0 7.681641 3.181641 7.681641 8.173828v2.214844h-12.181641v.931641c0 2.865234 1.652344 5.0625 4.728516 5.0625 2.162109 0 3.621094-1.03711 3.9375-2.179688h3.269531c-.28125 2.003907-2.513672 4.904297-7.189453 4.904297zm-4.746094-11.021484h9.017578v-.298828c0-3.058594-1.792968-5.0625-4.5-5.0625-2.707031 0-4.517578 2.003906-4.517578 5.0625v.298828zm23.712891-8.050782c2.601562 0 4.623047 1.142579 5.361328 3.023438h.158203v-9.509766h3.181641V331h-3.058594v-2.953125h-.158203c-.544922 1.880859-2.847656 3.216797-5.554688 3.216797-4.30664 0-7.101562-3.023438-7.101562-7.734375v-3.550781c0-4.728516 2.865234-7.751954 7.171875-7.751954zm.65039 2.759766c-2.882812 0-4.623046 2.091797-4.623046 5.625v2.232422c0 3.568359 1.77539 5.660156 4.710937 5.660156 2.900391 0 4.78125-2.05664 4.78125-5.361328v-3.164062c0-2.935547-2.056641-4.992188-4.869141-4.992188z"/>
    <g fill="#000" fill-rule="nonzero" transform="translate(468 122)">
      <circle cx="10.400004" cy="58.400004" r="9.6"/>
      <path d="M68.000004 68.000004H55.2c0-29.996868-24.403128-54.399996-54.399996-54.399996V.800004c37.05312 0 67.2 30.145308 67.2 67.2z"/>
      <path d="M45.6 68.000004H32.799996C32.799996 50.354688 18.443748 36 .800004 36V23.199996C25.50312 23.199996 45.6 43.296876 45.6 68.000004z"/>
    </g>
    <g fill="#000" fill-rule="nonzero">
      <path d="M868.8 175.7936l-16.0968-16.0968c-.9372-.9372-.9372-2.4564 0-3.3936L868.8 140.2064l3.3948 3.3936-14.4 14.4 14.4 14.4-3.3948 3.3936zM907.2 175.7936l-3.3948-3.3936 14.4-14.4-14.4-14.4 3.3948-3.3936 16.0968 16.0968c.9372.9372.9372 2.4564 0 3.3936L907.2 175.7936zM875.32375406 185.83594163l20.84392154-57.31163528 4.51103998 1.64064004-20.84392153 57.31163528z"/>
    </g>
    <g fill="#000" fill-rule="nonzero">
      <path d="M1287.6 121.5032V135.2h13.6968z"/>
      <path d="M1286.4 137.6h15.6v55.2c0 1.326-1.074 2.4-2.4 2.4h-55.2c-1.326 0-2.4-1.074-2.4-2.4v-69.6c0-1.326 1.074-2.4 2.4-2.4h40.8v15.6c0 .6624.5376 1.2 1.2 1.2zm-26.8453125 20.6882812c2.2675781-.2109375 3.4804687-1.3007812 3.4804687-3.8496093v-3.9726563c0-2.5488281.7734376-3.4277344 3.5507813-3.4277344h.7207031v-3.5683593h-1.7578125c-4.8339843 0-7.2246093 1.5644531-7.2246093 6.2226562v3.1289063c0 2.3730468-.5097657 3.4628906-2.7773438 3.4628906v4.5c2.2675781 0 2.7773438 1.0898437 2.7773438 3.4628906v3.6738281c0 4.6933594 2.390625 6.3808594 7.2246093 6.3808594h1.7578125v-3.5859375h-.7207031c-2.7773437 0-3.5507813-.8789062-3.5507813-3.4277344v-4.3769531c0-2.5488281-1.2128906-3.9375-3.4804687-4.1308594v-.4921875zm24.2402344.4921875c-2.25.1933594-3.4628907 1.5820313-3.4628907 4.1308594v4.3769531c0 2.5488282-.8085937 3.4277344-3.5507812 3.4277344h-.7382812v3.5859375h1.7578124c4.8339844 0 7.2070313-1.6875 7.2070313-6.3808594v-3.6738281c0-2.3730469.5273437-3.4628906 2.8125-3.4628906v-4.5c-2.2851563 0-2.8125-1.0898438-2.8125-3.4628906v-3.1289063c0-4.6582031-2.3730469-6.2226562-7.2070313-6.2226562h-1.7578124v3.5683593h.7382812c2.7421875 0 3.5507812.8789063 3.5507812 3.4277344v3.9726563c0 2.5488281 1.2128907 3.6386718 3.4628907 3.8496093v.4921875z"/>
    </g>
    <path fill="#000" d="M831.03125 281.900391h3.269531c.457031 2.267578 2.619141 3.726562 5.748047 3.726562 3.339844 0 5.396484-1.599609 5.396484-4.095703 0-1.916016-1.21289-3.023438-3.902343-3.708984L837.376953 276.75c-3.603515-.931641-5.677734-3.128906-5.677734-6.345703 0-4.078125 3.498047-6.960938 8.384765-6.960938 4.746094 0 7.962891 2.654297 8.332032 6.310547h-3.251954c-.439453-2.109375-2.33789-3.445312-5.132812-3.445312-3.023438 0-5.044922 1.599609-5.044922 3.9375 0 1.6875 1.177734 2.847656 3.375 3.392578l4.095703 1.072266c4.201172 1.089843 6.257813 3.058593 6.257813 6.55664 0 4.359375-3.462891 7.22461-9 7.22461-5.080078 0-8.34961-2.72461-8.683594-6.591797zm21.990234-1.6875v-3.00586c0-4.851562 2.970704-8.015625 7.716797-8.015625 4.623047 0 7.013672 2.865235 7.101563 5.695313h-3.111328c-.19336-1.107422-1.054688-2.865235-3.9375-2.865235-3.023438 0-4.587891 2.074219-4.587891 5.308594v2.900391c0 3.216797 1.740234 5.255859 4.587891 5.255859 2.724609 0 3.74414-1.230469 4.078125-2.654297h3.09375c-.105469 2.759766-2.337891 5.466797-7.22461 5.466797-4.763672 0-7.716797-3.111328-7.716797-8.085937zm20.25 7.787109v-18.492188h3.181641v2.847657h.158203c.457031-1.230469 1.792969-3.128907 5.0625-3.128907.404297 0 .791016.035157 1.160156.087891V272.25c-.298828-.070312-.93164-.105469-1.49414-.105469-3.251953 0-4.869141 1.951172-4.869141 4.447266V288h-3.199219zm18.808594.298828c-3.585937 0-6.046875-2.25-6.046875-5.677734 0-3.234375 2.25-5.431641 6.503906-5.431641h4.833985v-1.828125c0-2.355469-1.494141-3.427734-3.867188-3.427734-2.33789 0-3.322265.896484-3.691406 2.179687h-3.076172c.28125-3.128906 2.742188-4.904297 6.873047-4.904297 3.814453 0 6.960937 1.634766 6.960937 6.169922V288h-3.058593v-2.443359h-.140625c-.896485 1.476562-2.566406 2.742187-5.291016 2.742187zm.878906-2.689453c2.496094 0 4.41211-1.6875 4.41211-3.919922v-2.074219h-4.570313c-2.496093 0-3.515625 1.248047-3.515625 2.900391 0 2.109375 1.757813 3.09375 3.673828 3.09375zm22.429688 2.671875c-2.548828 0-4.447266-1.089844-5.308594-3.023438h-.158203v8.876954h-3.181641v-24.644532h3.058594v2.935547h.158203c.75586-1.986328 2.882813-3.199219 5.53711-3.199219 4.341797 0 7.066406 3.058594 7.066406 7.945313v3.146484c0 4.921875-2.759766 7.962891-7.171875 7.962891zm-.650391-2.759766c2.917969 0 4.623047-2.109375 4.623047-5.783203v-1.933593c0-3.708985-1.705078-5.81836-4.710937-5.81836-2.917969 0-4.728516 2.039063-4.728516 5.361328v3.181641c0 2.953125 1.96875 4.992187 4.816406 4.992187zm20.232422 2.777344c-4.974609 0-7.910156-3.146484-7.910156-8.15625v-2.777344c0-5.0625 3.234375-8.173828 7.664062-8.173828 4.482422 0 7.681641 3.181641 7.681641 8.173828v2.214844h-12.181641v.931641c0 2.865234 1.652344 5.0625 4.728516 5.0625 2.162109 0 3.621094-1.03711 3.9375-2.179688h3.269531c-.28125 2.003907-2.513672 4.904297-7.189453 4.904297zm-4.746094-11.021484h9.017579v-.298828c0-3.058594-1.792969-5.0625-4.5-5.0625-2.707032 0-4.517579 2.003906-4.517579 5.0625v.298828zM815.386719 331h-2.935547v-23.994141h3.18164l7.822266 18.28125h.105469l7.804687-18.28125h3.164063V331h-2.935547v-17.384766h-.175781l-6.609375 15.240235h-2.636719l-6.626953-15.240235h-.158203V331zm32.695312.298828c-4.974609 0-7.910156-3.146484-7.910156-8.15625v-2.777344c0-5.0625 3.234375-8.173828 7.664063-8.173828 4.482421 0 7.68164 3.181641 7.68164 8.173828v2.214844h-12.18164v.931641c0 2.865234 1.652343 5.0625 4.728515 5.0625 2.162109 0 3.621094-1.03711 3.9375-2.179688h3.269531c-.28125 2.003907-2.513672 4.904297-7.189453 4.904297zm-4.746093-11.021484h9.017578v-.298828c0-3.058594-1.792969-5.0625-4.5-5.0625-2.707032 0-4.517578 2.003906-4.517578 5.0625v.298828zm18.474609-7.716797v-4.640625h3.146484v4.640625h4.183594v2.619141h-4.183594v10.582031c0 2.162109.738281 2.724609 2.988281 2.724609.457032 0 1.160157-.035156 1.458985-.070312V331c-.263672.052734-1.564453.158203-2.267578.158203-4.394531 0-5.34375-1.6875-5.34375-5.34375v-10.634765h-2.830078v-2.619141h2.847656zm17.507812 18.738281c-3.585937 0-6.046875-2.25-6.046875-5.677734 0-3.234375 2.25-5.431641 6.503907-5.431641h4.833984v-1.828125c0-2.355469-1.494141-3.427734-3.867187-3.427734-2.337891 0-3.322266.896484-3.691407 2.179687h-3.076172c.28125-3.128906 2.742188-4.904297 6.873047-4.904297 3.814453 0 6.960938 1.634766 6.960938 6.169922V331H884.75v-2.443359h-.140625c-.896484 1.476562-2.566406 2.742187-5.291016 2.742187zm.878907-2.689453c2.496093 0 4.412109-1.6875 4.412109-3.919922v-2.074219h-4.570313c-2.496093 0-3.515624 1.248047-3.515624 2.900391 0 2.109375 1.757812 3.09375 3.673828 3.09375zm20.039062-16.382813c2.601563 0 4.623047 1.142579 5.361328 3.023438h.158203v-9.509766h3.181641V331h-3.058594v-2.953125h-.158203c-.544922 1.880859-2.847656 3.216797-5.554687 3.216797-4.306641 0-7.101563-3.023438-7.101563-7.734375v-3.550781c0-4.728516 2.865235-7.751954 7.171875-7.751954zm.650391 2.759766c-2.882813 0-4.623047 2.091797-4.623047 5.625v2.232422c0 3.568359 1.77539 5.660156 4.710937 5.660156 2.900391 0 4.78125-2.05664 4.78125-5.361328v-3.164062c0-2.935547-2.05664-4.992188-4.86914-4.992188zm19.353515 16.3125c-3.585937 0-6.046875-2.25-6.046875-5.677734 0-3.234375 2.25-5.431641 6.503907-5.431641h4.833984v-1.828125c0-2.355469-1.494141-3.427734-3.867188-3.427734-2.33789 0-3.322265.896484-3.691406 2.179687h-3.076172c.28125-3.128906 2.742188-4.904297 6.873047-4.904297 3.814453 0 6.960938 1.634766 6.960938 6.169922V331h-3.058594v-2.443359h-.140625c-.896484 1.476562-2.566406 2.742187-5.291016 2.742187zm.878907-2.689453c2.496093 0 4.412109-1.6875 4.412109-3.919922v-2.074219h-4.570312c-2.496094 0-3.515626 1.248047-3.515626 2.900391 0 2.109375 1.757813 3.09375 3.673829 3.09375zm14.800781-16.048828v-4.640625h3.146484v4.640625H943.25v2.619141h-4.183594v10.582031c0 2.162109.738282 2.724609 2.988282 2.724609.457031 0 1.160156-.035156 1.458984-.070312V331c-.263672.052734-1.564453.158203-2.267578.158203-4.394532 0-5.34375-1.6875-5.34375-5.34375v-10.634765h-2.830078v-2.619141h2.847656zm17.507812 18.738281c-3.585937 0-6.046875-2.25-6.046875-5.677734 0-3.234375 2.25-5.431641 6.503907-5.431641h4.833984v-1.828125c0-2.355469-1.494141-3.427734-3.867188-3.427734-2.33789 0-3.322265.896484-3.691406 2.179687h-3.076172c.28125-3.128906 2.742188-4.904297 6.873047-4.904297 3.814453 0 6.960938 1.634766 6.960938 6.169922V331h-3.058594v-2.443359h-.140625c-.896484 1.476562-2.566406 2.742187-5.291016 2.742187zm.878907-2.689453c2.496093 0 4.412109-1.6875 4.412109-3.919922v-2.074219h-4.570312c-2.496094 0-3.515626 1.248047-3.515626 2.900391 0 2.109375 1.757813 3.09375 3.673829 3.09375zM1227.90527 264.005859c4.78125 0 7.78711 2.830079 7.78711 7.207032 0 3.287109-1.79297 5.748047-4.46484 6.697265L1236.11426 288h-3.67383l-4.41211-9.474609h-5.66016V288h-3.21679v-23.994141h8.7539zm-5.53711 11.707032h4.99219c3.2168 0 4.99219-1.476563 4.99219-4.324219 0-2.900391-1.81055-4.535156-4.86914-4.535156h-5.11524v8.859375zm25.94532 12.585937c-4.97461 0-7.91016-3.146484-7.91016-8.15625v-2.777344c0-5.0625 3.23438-8.173828 7.66406-8.173828 4.48242 0 7.68164 3.181641 7.68164 8.173828v2.214844h-12.18164v.931641c0 2.865234 1.65235 5.0625 4.72852 5.0625 2.16211 0 3.62109-1.03711 3.9375-2.179688h3.26953c-.28125 2.003907-2.51367 4.904297-7.18945 4.904297zm-4.7461-11.021484h9.01758v-.298828c0-3.058594-1.79297-5.0625-4.5-5.0625s-4.51758 2.003906-4.51758 5.0625v.298828zm18.47461-7.716797v-4.640625h3.14649v4.640625h4.18359v2.619141h-4.18359v10.582031c0 2.162109.73828 2.724609 2.98828 2.724609.45703 0 1.16015-.035156 1.45898-.070312V288c-.26367.052734-1.56445.158203-2.26758.158203-4.39453 0-5.34375-1.6875-5.34375-5.34375v-10.634765h-2.83007v-2.619141h2.84765zm27.52735-.052735V288h-3.14649v-3.076172h-.17578c-.52734 1.511719-2.26758 3.375-5.50195 3.375-3.70899 0-6.32813-1.669922-6.32813-5.976562v-12.814454h3.18164v11.953126c0 3.058593 1.82813 4.02539 4.02539 4.02539 2.70703 0 4.76368-1.96875 4.76368-4.341797v-11.636719h3.18164zM1296.1084 288v-18.492188h3.18164v2.847657h.1582c.45703-1.230469 1.79297-3.128907 5.0625-3.128907.4043 0 .79102.035157 1.16016.087891V272.25c-.29883-.070312-.93164-.105469-1.49414-.105469-3.25196 0-4.86914 1.951172-4.86914 4.447266V288h-3.19922zm13.8164 0v-18.492188h3.14649v3.357422h.17578c.45703-1.458984 1.74023-3.65625 5.60742-3.65625 3.72656 0 6.27539 2.021485 6.27539 6.169922V288h-3.18164v-11.601562c0-2.900391-1.49414-4.376954-4.00781-4.376954-3.25195 0-4.83398 2.496094-4.83398 5.677735V288h-3.18165zm-120.91992 37.304688h3.16407c.07031 1.898437 1.56445 3.216796 3.60351 3.216796 2.56641 0 3.9375-1.529296 3.9375-4.30664v-17.208985h3.25195v16.927735c0 4.816406-2.65429 7.558594-7.18945 7.558594-4.16601 0-6.76758-2.601563-6.76758-6.1875zm18.73828-.404297h3.26954c.45703 2.267578 2.61914 3.726562 5.74804 3.726562 3.33985 0 5.39649-1.599609 5.39649-4.095703 0-1.916016-1.21289-3.023438-3.90235-3.708984l-4.16601-1.072266c-3.60352-.931641-5.67774-3.128906-5.67774-6.345703 0-4.078125 3.49805-6.960938 8.38477-6.960938 4.74609 0 7.96289 2.654297 8.33203 6.310547h-3.25195c-.43946-2.109375-2.33789-3.445312-5.13282-3.445312-3.02343 0-5.04492 1.599609-5.04492 3.9375 0 1.6875 1.17774 2.847656 3.375 3.392578l4.09571 1.072266c4.20117 1.089843 6.25781 3.058593 6.25781 6.55664 0 4.359375-3.46289 7.22461-9 7.22461-5.08008 0-8.34961-2.72461-8.6836-6.591797zm38.21485-7.628907c0-5.291015-2.77735-7.857422-6.41602-7.857422-3.65625 0-6.41601 2.566407-6.41601 7.857422v3.480469c0 5.273438 2.75976 7.839844 6.41601 7.839844 3.63867 0 6.41602-2.566406 6.41602-7.839844v-3.480469zm3.25195 3.462891c0 6.802734-3.7793 10.757813-9.66797 10.757813s-9.66797-3.955079-9.66797-10.757813v-3.462891c0-6.820312 3.7793-10.757812 9.66797-10.757812s9.66797 3.955078 9.66797 10.757812v3.462891zM1258.06934 331h-3.18164v-23.994141h3.05859l11.86523 18.351563h.15821v-18.351563h3.18164V331h-3.0586l-11.90039-18.386719h-.12304V331zm24.96093 0h-3.23437v-23.994141h14.29101v2.900391h-11.05664v7.962891h10.125v2.882812h-10.125V331zm22.30664.298828c-4.97461 0-7.91015-3.146484-7.91015-8.15625v-2.777344c0-5.0625 3.23437-8.173828 7.66406-8.173828 4.48242 0 7.68164 3.181641 7.68164 8.173828v2.214844h-12.18164v.931641c0 2.865234 1.65234 5.0625 4.72852 5.0625 2.16211 0 3.62109-1.03711 3.9375-2.179688h3.26953c-.28125 2.003907-2.51367 4.904297-7.18946 4.904297zm-4.74609-11.021484h9.01758v-.298828c0-3.058594-1.79297-5.0625-4.5-5.0625s-4.51758 2.003906-4.51758 5.0625v.298828zm24.45117 11.021484c-4.97461 0-7.91015-3.146484-7.91015-8.15625v-2.777344c0-5.0625 3.23437-8.173828 7.66406-8.173828 4.48242 0 7.68164 3.181641 7.68164 8.173828v2.214844h-12.18164v.931641c0 2.865234 1.65234 5.0625 4.72851 5.0625 2.16211 0 3.6211-1.03711 3.9375-2.179688h3.26954c-.28125 2.003907-2.51368 4.904297-7.18946 4.904297zm-4.74609-11.021484h9.01758v-.298828c0-3.058594-1.79297-5.0625-4.5-5.0625s-4.51758 2.003906-4.51758 5.0625v.298828zm23.71289-8.050782c2.60156 0 4.62305 1.142579 5.36133 3.023438h.1582v-9.509766h3.18164V331h-3.05859v-2.953125h-.15821c-.54492 1.880859-2.84765 3.216797-5.55468 3.216797-4.30664 0-7.10157-3.023438-7.10157-7.734375v-3.550781c0-4.728516 2.86524-7.751954 7.17188-7.751954zm.65039 2.759766c-2.88281 0-4.62305 2.091797-4.62305 5.625v2.232422c0 3.568359 1.77539 5.660156 4.71094 5.660156 2.90039 0 4.78125-2.05664 4.78125-5.361328v-3.164062c0-2.935547-2.05664-4.992188-4.86914-4.992188z"/>
    <path stroke="#000" stroke-linecap="round" stroke-linejoin="round" stroke-width="6" d="M686.5 138.5l20 20-20 20M1070.5 138.5l20 20-20 20"/>
  </g>
</svg>
